<svg width="40" height="29" viewBox="0 0 40 29" fill="none" xmlns="http://www.w3.org/2000/svg">
<g clip-path="url(#clip0_5_67)">
<path d="M-3.4282e-06 1.57136C0.0397778 1.48185 0.0895043 1.39234 0.129285 1.29289C0.43759 0.497265 1.02436 0.0696171 1.86971 0C2.00895 0 2.15813 0 2.29736 0C14.1024 0 25.9075 0 37.7126 0C37.9612 0 38.2098 0 38.4485 0.0497265C39.3933 0.258578 39.9801 1.01442 39.9901 2.02884C40 3.24217 39.9901 4.44555 39.9901 5.65888C39.9901 8.79165 39.9901 11.9344 39.9901 15.0671C39.9901 16.5291 39.2143 17.3148 37.7524 17.3148C25.9075 17.3148 14.0627 17.3148 2.2178 17.3148C1.06414 17.3148 0.328192 16.7777 -0.00994873 15.6937C-3.4282e-06 10.9995 -3.4282e-06 6.28543 -3.4282e-06 1.57136ZM20.0298 1.33267C14.1223 1.33267 8.20487 1.33267 2.29736 1.33267C1.52163 1.33267 1.32272 1.53158 1.32272 2.29736C1.32272 6.54401 1.32272 10.7907 1.32272 15.0274C1.32272 15.8031 1.50174 15.992 2.29736 15.992C14.0925 15.992 25.8876 15.992 37.6827 15.992C38.4883 15.992 38.6673 15.813 38.6673 14.9975C38.6673 10.7608 38.6673 6.53406 38.6673 2.29736C38.6673 1.48185 38.4983 1.31278 37.6827 1.31278C31.8051 1.33267 25.9175 1.33267 20.0298 1.33267Z" fill="#BDBDBD"/>
<path d="M20.0398 13.3267C25.4401 13.3267 30.8404 13.3267 36.2506 13.3267C36.4296 13.3267 36.6186 13.3367 36.7976 13.3565C37.1556 13.3963 37.3048 13.645 37.3347 13.9732C37.3645 14.3113 37.1358 14.5699 36.7976 14.6295C36.6484 14.6594 36.4893 14.6594 36.3302 14.6594C25.45 14.6594 14.5599 14.6594 3.67976 14.6594C2.97365 14.6594 2.68523 14.4704 2.67529 14.0129C2.66534 13.5356 2.9637 13.3267 3.67976 13.3267C9.12979 13.3267 14.5898 13.3267 20.0398 13.3267Z" fill="#BDBDBD"/>
<path d="M20 11.994C14.5798 11.994 9.16955 11.994 3.74936 11.994C3.57035 11.994 3.38139 11.994 3.20237 11.9741C2.84434 11.9344 2.67527 11.6857 2.67527 11.3575C2.66532 11.0293 2.8145 10.7708 3.17253 10.7111C3.32171 10.6813 3.48084 10.6713 3.63996 10.6713C14.55 10.6713 25.46 10.6713 36.3699 10.6713C36.4197 10.6713 36.4694 10.6713 36.5291 10.6713C37.0661 10.6912 37.3545 10.9299 37.3346 11.3575C37.3247 11.7752 37.0562 11.994 36.5291 11.994C34.0129 11.994 31.5067 11.994 28.9905 11.994C25.9871 11.994 22.9935 11.994 20 11.994Z" fill="#BDBDBD"/>
<path d="M20.01 4.66435C20.8056 4.66435 21.5913 4.66435 22.3869 4.66435C22.546 4.66435 22.7051 4.66435 22.8543 4.70413C23.1626 4.77375 23.3118 5.00249 23.3218 5.30085C23.3317 5.60916 23.2124 5.86773 22.8842 5.95724C22.7648 5.98708 22.6256 6.00697 22.4963 6.00697C20.8354 6.00697 19.1746 6.01691 17.5137 5.99702C17.285 5.99702 16.9767 5.91746 16.8573 5.76828C16.728 5.59921 16.6783 5.26107 16.7579 5.06216C16.8275 4.88315 17.1258 4.71408 17.3247 4.70413C18.2198 4.64446 19.1149 4.6743 20.01 4.66435Z" fill="#BDBDBD"/>
</g>
<defs>
<clipPath id="clip0_5_67">
<rect width="40" height="28.0656" fill="white"/>
</clipPath>
</defs>
</svg>
