<svg width="40" height="40" viewBox="0 0 40 40" fill="none" xmlns="http://www.w3.org/2000/svg">
<g clip-path="url(#clip0_6_90)">
<path d="M18.0447 18.7018C18.0447 15.2653 18.0447 11.861 18.0447 8.59682C17.743 8.24131 17.4629 8.0043 17.2798 7.70266C16.558 6.5715 15.8362 5.42957 15.1468 4.27686C14.5112 3.22111 14.2203 2.05763 14.188 0.818744C14.1772 0.237005 14.4034 0 14.9744 0C18.3248 0 21.6644 0 25.0148 0C25.5642 0 25.8012 0.237005 25.7904 0.786426C25.7689 2.00377 25.478 3.16725 24.864 4.21222C24.1099 5.49421 23.3019 6.75464 22.5047 8.01508C22.3862 8.19822 22.16 8.31672 21.9337 8.51063C21.9337 11.8502 21.9337 15.2545 21.9337 18.6588C22.3862 18.7557 22.8494 18.8096 23.2696 18.9496C23.6897 19.0789 24.0775 19.2944 24.53 19.499C25.3488 18.7665 26.2106 17.9908 27.0617 17.226C28.6345 15.8147 30.2074 14.4034 31.7694 12.9922C32.9976 11.8826 34.4088 11.4409 36.0463 11.7102C36.8004 11.8395 37.5545 11.958 38.3086 12.098C39.1812 12.2596 39.7845 12.8629 39.9569 13.714C40.1185 14.5004 39.763 15.3299 39.0304 15.7931C37.7269 16.6119 36.4018 17.4091 35.0767 18.2063C32.3081 19.8869 29.5502 21.5782 26.7708 23.248C26.5015 23.4096 26.4153 23.5928 26.4261 23.8944C26.4368 24.2176 26.6954 24.1961 26.8677 24.2715C29.5071 25.338 32.1465 26.383 34.7859 27.4495C35.8308 27.8696 36.3264 28.8069 36.0355 29.798C35.8201 30.5521 35.303 31.0153 34.5381 31.1554C33.6116 31.3277 32.6851 31.5001 31.7587 31.6078C30.369 31.7694 29.0977 31.3924 27.9558 30.5952C26.9755 29.9165 25.9844 29.2378 25.0148 28.5483C24.8101 28.4083 24.6916 28.4083 24.4977 28.5699C23.5497 29.3455 22.4401 29.7226 21.2227 29.7118C20.1239 29.701 19.0143 29.7226 17.9262 29.6256C17.3337 29.5718 16.7519 29.3024 16.1486 29.1193C16.1486 29.1947 16.1379 29.2917 16.1379 29.3994C16.1379 31.5755 16.1379 33.7517 16.1271 35.9278C16.1271 36.1756 16.1917 36.2941 16.418 36.4234C17.2259 36.8543 17.5922 37.7484 17.3552 38.6103C17.1182 39.4506 16.3426 40.0431 15.47 40.0323C14.5973 40.0215 13.8432 39.4182 13.6278 38.5672C13.4123 37.7161 13.7786 36.8435 14.5866 36.4234C14.802 36.3156 14.8667 36.1971 14.8667 35.9601C14.8559 33.3962 14.8667 30.8214 14.8559 28.2575C14.8559 28.0743 14.7589 27.8804 14.6728 27.7188C14.4142 27.2125 14.091 26.7169 13.8756 26.189C13.7571 25.9197 13.6601 25.8335 13.3692 25.8335C9.62024 25.8443 5.87125 25.8443 2.11148 25.8335C0.851048 25.8012 -0.0646531 24.8855 -1.53447e-05 23.722C0.0215306 23.3773 0.118487 22.9679 0.323173 22.7094C1.30351 21.4813 2.4239 20.4363 4.03984 20.1239C4.43844 20.0485 4.83704 20.0161 5.23564 20.0054C8.18743 19.9623 11.1177 20.07 14.0479 20.4794C14.3065 20.5117 14.4896 20.4794 14.6728 20.2532C15.5561 19.2297 16.6981 18.7665 18.0447 18.7018ZM22.8925 22.7202C23.4204 22.8171 23.8944 22.9248 24.3576 22.9895C24.5085 23.011 24.7024 22.9895 24.8317 22.9141C29.3024 20.2101 33.7624 17.4845 38.2224 14.7805C38.5456 14.5866 38.7611 14.328 38.6857 13.9294C38.5995 13.5308 38.2979 13.38 37.9208 13.3261C37.2852 13.2292 36.6496 13.1322 36.014 13.003C34.6674 12.7444 33.547 13.1107 32.5343 14.0372C30.2181 16.1487 27.8804 18.2278 25.5534 20.3286C24.6808 21.1042 23.8082 21.8906 22.8925 22.7202ZM15.5238 1.3143C15.5992 2.20846 15.8793 3.00565 16.3318 3.75976C16.7519 4.44923 17.1829 5.12793 17.603 5.81739C17.8615 6.23754 18.0447 6.81928 18.4217 7.03474C18.8203 7.2502 19.4129 7.11015 19.9192 7.11015C20.4686 7.11015 21.115 7.26097 21.5351 7.03474C21.9445 6.80851 22.1492 6.18367 22.4185 5.72044C22.9356 4.8586 23.4743 4.00754 23.959 3.12416C24.2607 2.57474 24.4115 1.96068 24.4331 1.32507C21.4597 1.3143 18.5079 1.3143 15.5238 1.3143ZM19.9623 28.4514C19.9623 28.4298 19.9623 28.4083 19.9623 28.3867C20.4147 28.3867 20.878 28.3975 21.3304 28.3867C22.9464 28.3544 24.4007 27.3633 24.8963 25.8335C25.3488 24.4331 25.3272 24.5731 24.0668 24.2822C21.9445 23.7867 19.7791 23.7651 17.6138 24.0021C16.7843 24.0991 15.9547 24.3253 15.136 24.4977C14.9098 24.5408 14.8128 24.6701 14.8343 24.9286C15.0175 26.5122 16.1486 27.8804 17.7107 28.2359C18.4541 28.3975 19.2189 28.3867 19.9623 28.4514ZM13.6816 21.7398C13.6493 21.729 13.5631 21.7075 13.477 21.6967C10.9022 21.3735 8.30593 21.3304 5.72043 21.2658C3.8998 21.2227 2.58549 22.0091 1.47588 23.3127C1.18501 23.6574 1.2281 24.1422 1.59438 24.3684C1.77752 24.4761 2.0253 24.5085 2.24076 24.5192C5.87125 24.53 9.49096 24.53 13.1214 24.5192C13.2507 24.5192 13.38 24.5085 13.4877 24.4977C13.5524 23.582 13.617 22.6878 13.6816 21.7398ZM25.6504 27.4064C26.7923 28.182 27.945 29.0116 29.1301 29.7657C29.938 30.272 30.8537 30.4228 31.8018 30.272C32.5666 30.1535 33.3423 30.0242 34.1072 29.9057C34.4627 29.8519 34.7751 29.7333 34.8182 29.3132C34.8613 28.9038 34.592 28.7207 34.258 28.5914C32.7713 27.9989 31.2954 27.4064 29.8088 26.8139C28.6776 26.3614 27.5464 25.909 26.4261 25.4673C26.1675 26.1136 25.9197 26.7277 25.6504 27.4064ZM14.8559 23.2157C16.3102 22.7525 17.7969 22.6447 19.2836 22.5909C19.8976 22.5693 20.5763 22.7202 21.115 22.5047C21.6536 22.2892 22.0522 21.729 22.5155 21.3197C22.8387 21.0288 23.1618 20.7379 23.4743 20.4471C23.4635 20.404 23.4635 20.3609 23.4527 20.3178C23.0003 20.2101 22.5586 20.0269 22.1061 20.0161C20.6948 19.9731 19.2836 19.9731 17.8831 20.0161C16.2025 20.0592 14.802 21.5567 14.8559 23.2157ZM19.3805 8.4029C19.3805 11.8502 19.3805 15.2653 19.3805 18.6803C19.8222 18.6803 20.2208 18.6803 20.6194 18.6803C20.6194 15.2437 20.6194 11.8287 20.6194 8.4029C20.1993 8.4029 19.8007 8.4029 19.3805 8.4029ZM15.4807 37.4252C15.136 37.4252 14.8343 37.7161 14.8343 38.0608C14.8343 38.4056 15.1252 38.7072 15.47 38.7072C15.8147 38.7072 16.1163 38.4163 16.1163 38.0716C16.1163 37.7269 15.8255 37.4252 15.4807 37.4252Z" fill="#BDBDBD"/>
</g>
<defs>
<clipPath id="clip0_6_90">
<rect width="40" height="40" fill="white"/>
</clipPath>
</defs>
</svg>
