<svg width="31" height="34" viewBox="0 0 31 34" fill="none" xmlns="http://www.w3.org/2000/svg">
<path d="M15.5 0C15.9429 0.205615 16.0536 0.569395 16.0536 1.02807C16.0536 3.3531 16.0852 5.69395 16.101 8.01898C16.101 8.17715 16.101 8.3195 16.101 8.54093C16.3541 8.54093 16.5597 8.54093 16.7811 8.54093C17.7776 8.57256 18.3944 9.1894 18.4102 10.1858C18.4102 10.5971 18.4261 11.0241 18.4102 11.4354C18.3944 11.7675 18.4893 11.894 18.8215 11.9889C21.02 12.4951 23.0128 13.4599 24.7368 14.915C27.3624 17.1293 29.1497 19.8814 29.9247 23.2503C30.1777 24.3416 30.2568 25.4804 30.3675 26.6034C30.4308 27.2835 30.1145 27.584 29.4344 27.584C26.967 27.584 24.4838 27.584 22.0164 27.584C21.8741 27.584 21.7317 27.584 21.5577 27.584C21.2572 29.5295 20.3715 31.1111 18.7108 32.1866C17.4454 33.0249 16.0378 33.3412 14.551 33.1989C12.052 32.9458 9.41063 31.2376 8.80961 27.584C8.66726 27.584 8.52491 27.584 8.36674 27.584C5.91518 27.584 3.47944 27.584 1.02788 27.584C0.205416 27.584 -0.0160152 27.3151 -0.000198718 26.4927C0.0630674 24.1677 0.569196 21.9533 1.64472 19.8814C3.13147 16.987 5.29834 14.7885 8.17695 13.2859C9.36318 12.669 10.6285 12.1945 11.9413 11.9098C12.1943 11.8466 12.2734 11.7359 12.2734 11.4828C12.2576 11.0874 12.2734 10.6762 12.2734 10.2649C12.2892 9.14196 12.8903 8.52511 14.0132 8.52511C14.1872 8.52511 14.3454 8.52511 14.5826 8.52511C14.5826 8.35113 14.5826 8.20878 14.5826 8.06643C14.5668 5.70977 14.551 3.3531 14.5352 0.996441C14.5352 0.537762 14.6617 0.189798 15.1046 0C15.2469 0 15.3735 0 15.5 0ZM28.8491 25.9866C28.6119 19.5176 23.0445 12.8747 14.725 13.1435C7.05397 13.3966 1.77125 19.6916 1.59727 25.9866C10.676 25.9866 19.7388 25.9866 28.8491 25.9866ZM20.0552 27.5998C16.8444 27.5998 13.6653 27.5998 10.4862 27.5998C10.7234 29.83 12.7954 31.6172 15.1679 31.6647C17.5561 31.7121 19.723 29.9091 20.0552 27.5998ZM13.7444 11.5935C14.8041 11.5935 15.8163 11.5935 16.8286 11.5935C16.8286 11.0874 16.8286 10.6129 16.8286 10.1226C15.7847 10.1226 14.7724 10.1226 13.7444 10.1226C13.7444 10.6129 13.7444 11.0716 13.7444 11.5935Z" fill="#BDBDBD"/>
</svg>
