<svg width="28" height="28" viewBox="0 0 28 28" fill="none" xmlns="http://www.w3.org/2000/svg">
<path d="M15.375 1.8125C15.375 1.4644 15.2367 1.13056 14.9906 0.884422C14.7444 0.638281 14.4106 0.5 14.0625 0.5C13.7144 0.5 13.3806 0.638281 13.1344 0.884422C12.8883 1.13056 12.75 1.4644 12.75 1.8125V12.75H1.8125C1.4644 12.75 1.13056 12.8883 0.884422 13.1344C0.638281 13.3806 0.5 13.7144 0.5 14.0625C0.5 14.4106 0.638281 14.7444 0.884422 14.9906C1.13056 15.2367 1.4644 15.375 1.8125 15.375H12.75V26.3125C12.75 26.6606 12.8883 26.9944 13.1344 27.2406C13.3806 27.4867 13.7144 27.625 14.0625 27.625C14.4106 27.625 14.7444 27.4867 14.9906 27.2406C15.2367 26.9944 15.375 26.6606 15.375 26.3125V15.375H26.3125C26.6606 15.375 26.9944 15.2367 27.2406 14.9906C27.4867 14.7444 27.625 14.4106 27.625 14.0625C27.625 13.7144 27.4867 13.3806 27.2406 13.1344C26.9944 12.8883 26.6606 12.75 26.3125 12.75H15.375V1.8125Z" fill="#C0C0C0"/>
</svg>
