<svg width="40" height="40" viewBox="0 0 40 40" fill="none" xmlns="http://www.w3.org/2000/svg">
<g clip-path="url(#clip0_6_85)">
<path d="M2.43403 34.098C1.09855 33.6564 0.290792 32.7948 0.0430802 31.4378C0.0107701 31.2332 0 31.007 0 30.7916C0 24.4588 0 18.1368 0 11.804C0 9.75767 1.3678 8.38988 3.40334 8.37911C7.03285 8.37911 10.6624 8.37911 14.2919 8.37911C14.4534 8.37911 14.615 8.37911 14.8411 8.37911C14.8411 7.81906 14.8411 7.28056 14.8411 6.73129C14.8411 5.98815 15.0242 5.79429 15.7566 5.79429C16.6182 5.79429 17.469 5.79429 18.406 5.79429C18.266 5.64351 18.1799 5.53581 18.0829 5.43888C16.7044 4.06031 15.3258 2.68174 13.9472 1.30317C13.8611 1.21701 13.7749 1.13085 13.6995 1.03392C13.4841 0.743132 13.4949 0.45234 13.7426 0.193858C13.9903 -0.0646231 14.2919 -0.0753931 14.5827 0.129238C14.6904 0.204629 14.7873 0.312329 14.8735 0.39849C16.5751 2.10016 18.2768 3.80183 19.9785 5.5035C20.0754 5.6112 20.1508 5.74044 20.2369 5.85891C20.3016 5.86968 20.377 5.89122 20.4416 5.90199C20.517 5.77275 20.56 5.6112 20.657 5.51427C22.3479 3.8126 24.0495 2.11093 25.7512 0.40926C25.8589 0.301559 25.9558 0.193858 26.0743 0.107698C26.3543 -0.0861632 26.6451 -0.053853 26.8821 0.183088C27.119 0.42003 27.1513 0.710821 26.9575 0.990843C26.8713 1.10931 26.7636 1.21701 26.6559 1.31394C25.2019 2.80021 23.748 4.26494 22.1971 5.80506C22.8325 5.80506 23.371 5.80506 23.9095 5.80506C25.0835 5.80506 25.1589 5.86968 25.1589 7.06516C25.1589 7.49596 25.1589 7.91599 25.1589 8.38988C25.3527 8.38988 25.5035 8.38988 25.6651 8.38988C29.2946 8.38988 32.9241 8.38988 36.5536 8.38988C38.643 8.38988 40 9.7469 40 11.8471C40 18.0722 40 24.2865 40 30.5116C40 32.4287 39.3753 33.3764 37.566 34.1196C37.706 34.7873 37.8568 35.4658 38.0075 36.1443C38.2229 37.1244 38.4491 38.1045 38.6645 39.0953C38.7938 39.6769 38.5353 40.0108 37.9429 40.0108C37.3829 40.0215 36.8121 40 36.252 40.0108C35.8428 40.0215 35.6058 39.8277 35.4766 39.44C34.9488 37.8245 34.3996 36.209 33.8718 34.5934C33.7857 34.3134 33.6672 34.1949 33.3441 34.1949C24.448 34.2057 15.552 34.2057 6.6559 34.1949C6.33279 34.1949 6.22509 34.3134 6.12816 34.5934C5.6112 36.1766 5.08347 37.7491 4.55574 39.3323C4.36187 39.9139 4.22186 40.0108 3.62951 40.0108C3.10178 40.0108 2.58481 40.0108 2.05708 40.0108C1.46473 40 1.20625 39.6769 1.33549 39.0953C1.68013 37.5229 2.03554 35.9505 2.38018 34.378C2.40172 34.2919 2.41249 34.2165 2.43403 34.098ZM30.2962 32.9025C30.2962 25.1373 30.2962 17.4152 30.2962 9.67151C30.1239 9.67151 29.9731 9.67151 29.8331 9.67151C21.0447 9.67151 12.2563 9.67151 3.47873 9.67151C2.05708 9.67151 1.29241 10.447 1.29241 11.8794C1.29241 18.1583 1.29241 24.4265 1.29241 30.7054C1.29241 32.1594 2.04631 32.9025 3.51104 32.9025C12.2886 32.9025 21.0555 32.9025 29.8331 32.9025C29.9731 32.9025 30.1131 32.9025 30.2962 32.9025ZM38.6861 27.0759C38.6861 26.979 38.6968 26.9036 38.6968 26.8282C38.6968 21.7663 38.6968 16.7044 38.6968 11.6317C38.6968 10.5008 37.8568 9.68228 36.7259 9.67151C35.1104 9.66074 33.5057 9.67151 31.8901 9.67151C31.804 9.67151 31.7178 9.69305 31.6317 9.70382C31.6317 15.5089 31.6317 21.2924 31.6317 27.0759C34.0011 27.0759 36.3382 27.0759 38.6861 27.0759ZM31.6317 32.9025C33.4087 32.9025 35.1427 32.9133 36.8659 32.8918C37.7383 32.881 38.546 32.2456 38.6322 31.3624C38.7291 30.3823 38.6537 29.3915 38.6537 28.4114C36.3059 28.4114 33.9688 28.4114 31.6209 28.4114C31.6317 29.9192 31.6317 31.384 31.6317 32.9025ZM16.1443 8.35756C18.7399 8.35756 21.2924 8.35756 23.8449 8.35756C23.8449 7.92676 23.8449 7.52827 23.8449 7.11901C21.2709 7.11901 18.7184 7.11901 16.1443 7.11901C16.1443 7.53904 16.1443 7.93753 16.1443 8.35756ZM2.74637 38.6645C3.3818 38.7615 3.3818 38.7615 3.56489 38.2229C3.82337 37.4475 4.08185 36.6721 4.34033 35.8966C4.52342 35.3366 4.70652 34.7873 4.88961 34.2165C4.48034 34.2165 4.10339 34.2165 3.73721 34.2165C3.40334 35.7135 3.08024 37.189 2.74637 38.6645ZM35.0889 34.2057C35.5412 35.5627 35.972 36.8659 36.4136 38.1799C36.6074 38.7615 36.6074 38.7615 37.2429 38.6753C36.909 37.189 36.5859 35.7028 36.252 34.2165C35.8643 34.2057 35.5089 34.2057 35.0889 34.2057Z" fill="#BDBDBD"/>
<path d="M15.8212 10.9639C19.0738 10.9639 22.3264 10.9639 25.5789 10.9639C27.6683 10.9639 29.0253 12.321 29.0253 14.4211C29.0253 19.0092 29.0253 23.5864 29.0253 28.1745C29.0253 30.2423 27.6575 31.6101 25.6005 31.6101C19.0738 31.6101 12.5364 31.6101 6.00972 31.6101C3.94187 31.6101 2.58484 30.2423 2.58484 28.1745C2.58484 23.5757 2.58484 18.9768 2.58484 14.3888C2.58484 12.3425 3.95264 10.9747 5.98818 10.9747C9.27304 10.9639 12.5471 10.9639 15.8212 10.9639ZM15.8428 12.2563C12.5471 12.2563 9.26227 12.2563 5.96664 12.2563C4.67423 12.2563 3.86648 13.0533 3.86648 14.335C3.86648 18.9661 3.86648 23.608 3.86648 28.2391C3.86648 29.5207 4.67423 30.3177 5.96664 30.3177C12.5256 30.3177 19.0846 30.3177 25.6328 30.3177C26.9467 30.3177 27.7329 29.5207 27.7329 28.196C27.7329 23.5864 27.7329 18.9768 27.7329 14.3673C27.7329 13.0318 26.9359 12.2456 25.6005 12.2456C22.3479 12.2563 19.0953 12.2563 15.8428 12.2563Z" fill="#BDBDBD"/>
<path d="M32.9026 13.2364C32.8918 11.9978 33.9149 10.9747 35.1535 10.9747C36.4028 10.9747 37.4044 11.9763 37.4152 13.2256C37.426 14.4642 36.4028 15.4873 35.1643 15.4873C33.9149 15.4873 32.9026 14.4749 32.9026 13.2364ZM35.1535 14.1841C35.6812 14.1841 36.1228 13.7426 36.1228 13.2148C36.1228 12.6979 35.692 12.2671 35.1858 12.2563C34.6581 12.2455 34.2057 12.6763 34.195 13.2041C34.1842 13.7426 34.6258 14.1841 35.1535 14.1841Z" fill="#BDBDBD"/>
<path d="M35.1319 20.6462C33.8934 20.6355 32.8918 19.6123 32.9026 18.363C32.9133 17.1244 33.9472 16.112 35.1858 16.1336C36.4351 16.1551 37.426 17.1675 37.4152 18.4168C37.4044 19.6446 36.3705 20.657 35.1319 20.6462ZM35.1427 17.426C34.615 17.4368 34.1734 17.8783 34.1842 18.4168C34.195 18.9446 34.6473 19.3754 35.175 19.3646C35.692 19.3538 36.112 18.9123 36.112 18.3953C36.1228 17.8568 35.6704 17.4152 35.1427 17.426Z" fill="#BDBDBD"/>
<path d="M35.1427 25.805C33.9041 25.7943 32.9025 24.7819 32.9025 23.5326C32.9025 22.294 33.9365 21.2816 35.175 21.2924C36.4243 21.3032 37.4152 22.3155 37.4152 23.5649C37.4152 24.7927 36.3813 25.8158 35.1427 25.805ZM35.1535 24.5126C35.6812 24.5126 36.1228 24.0711 36.1228 23.5433C36.1228 23.0264 35.692 22.5956 35.175 22.5848C34.6473 22.574 34.1949 23.0048 34.1842 23.5433C34.1842 24.0603 34.6257 24.5126 35.1535 24.5126Z" fill="#BDBDBD"/>
<path d="M34.8196 30.3177C34.4427 30.3177 34.0657 30.3177 33.6888 30.3177C33.1826 30.3177 32.8918 30.07 32.8918 29.6608C32.9026 29.273 33.1826 29.0253 33.6672 29.0253C34.4427 29.0253 35.2289 29.0253 36.0043 29.0253C36.4782 29.0253 36.769 29.2838 36.7582 29.6823C36.7475 30.07 36.4567 30.307 35.9828 30.3177C35.6058 30.3285 35.2181 30.3177 34.8196 30.3177Z" fill="#BDBDBD"/>
<path d="M34.2165 30.9747C34.4319 30.9747 34.6473 30.9639 34.8627 30.9747C35.2181 31.007 35.4765 31.2655 35.4765 31.5993C35.4873 31.9547 35.2288 32.2348 34.8519 32.2563C34.4103 32.2778 33.9687 32.2778 33.5272 32.2563C33.1718 32.2455 32.9241 31.9655 32.9133 31.6316C32.9025 31.2762 33.161 31.007 33.5379 30.9747C33.7533 30.9531 33.9903 30.9747 34.2165 30.9747Z" fill="#BDBDBD"/>
<path d="M7.77595 15.4873C7.16206 15.4873 6.5374 15.4873 5.9235 15.4873C5.44962 15.4873 5.15883 15.2288 5.1696 14.8411C5.1696 14.4534 5.46039 14.2057 5.93427 14.2057C7.14052 14.2057 8.35754 14.2057 9.56379 14.2057C10.0377 14.2057 10.3285 14.4642 10.3177 14.8519C10.3177 15.2396 10.0269 15.4873 9.55301 15.4873C8.96066 15.4873 8.36831 15.4873 7.77595 15.4873Z" fill="#BDBDBD"/>
<path d="M12.5794 14.195C12.6333 14.195 12.6871 14.195 12.741 14.195C13.2472 14.2057 13.5379 14.4427 13.5379 14.8412C13.5379 15.2397 13.2364 15.4766 12.7302 15.4874C12.5794 15.4874 12.4394 15.4981 12.2886 15.4874C11.8794 15.4658 11.6101 15.2073 11.6101 14.8412C11.6101 14.475 11.8794 14.2273 12.2994 14.2057C12.3963 14.1842 12.4932 14.195 12.5794 14.195Z" fill="#BDBDBD"/>
</g>
<defs>
<clipPath id="clip0_6_85">
<rect width="40" height="40" fill="white"/>
</clipPath>
</defs>
</svg>
